<svg width="65" height="65" viewBox="0 0 65 65" fill="none" xmlns="http://www.w3.org/2000/svg">
<g clip-path="url(#clip0)">
<path d="M65 32.5C65 30.4002 63.1884 26.5637 59.2096 23.1055C56.9386 21.1521 54.3505 19.6012 51.5569 18.5199C51.464 18.4852 51.3615 18.4862 51.2693 18.5228C51.1771 18.5594 51.1018 18.629 51.058 18.718C51.0389 18.7548 51.0199 18.7903 50.9983 18.8272L49.7808 20.8457C47.7277 24.391 46.6472 28.4157 46.6488 32.5126C46.6504 36.6095 47.7339 40.6334 49.7897 44.1771L49.8189 44.2267L50.9285 46.2579C50.9874 46.3658 51.0834 46.4487 51.1987 46.4912C51.314 46.5336 51.4408 46.5329 51.5556 46.489C60.8905 42.8365 65 35.736 65 32.5ZM53.0765 32.4822C52.6558 32.5372 52.2285 32.4592 51.8544 32.2589C51.4804 32.0587 51.1784 31.7463 50.991 31.3658C50.8035 30.9852 50.7399 30.5554 50.8091 30.1368C50.8783 29.7182 51.0768 29.3318 51.3768 29.0318C51.6768 28.7318 52.0632 28.5333 52.4818 28.4641C52.9004 28.3949 53.3301 28.4585 53.7107 28.646C54.0913 28.8335 54.4037 29.1354 54.6039 29.5095C54.8041 29.8835 54.8822 30.3109 54.8272 30.7315C54.7692 31.1755 54.566 31.5878 54.2494 31.9044C53.9328 32.221 53.5205 32.4242 53.0765 32.4822Z" fill="#032D23"/>
<path d="M42.586 32.5C42.5842 27.6839 43.858 22.9532 46.2778 18.7891L46.293 18.7624L46.8795 17.7887C46.9219 17.7193 46.947 17.6408 46.9527 17.5597C46.9585 17.4786 46.9446 17.3973 46.9124 17.3226C46.8802 17.248 46.8305 17.1822 46.7676 17.1307C46.7046 17.0793 46.6303 17.0437 46.5507 17.027C44.9073 16.6832 43.2418 16.4546 41.5665 16.3427C41.369 16.3299 41.1796 16.2593 41.0219 16.1395C38.5742 14.2784 33.7221 11.0233 28.776 10.1867C28.438 10.1307 28.0913 10.1611 27.7683 10.2751C27.4452 10.389 27.1562 10.5829 26.9281 10.8385C26.7 11.0942 26.5404 11.4034 26.4639 11.7374C26.3875 12.0713 26.3967 12.4192 26.4908 12.7486L27.8391 17.4675C27.8741 17.5898 27.862 17.7208 27.8051 17.8345C27.7483 17.9483 27.6507 18.0366 27.5319 18.0819C22.8536 19.8199 18.8241 23.0014 15.8852 25.4262C15.7053 25.5734 15.4804 25.6545 15.248 25.6559C15.0155 25.6572 14.7896 25.5789 14.608 25.4338C14.2086 25.1164 13.7985 24.8037 13.3779 24.4956C8.34543 20.8203 2.43323 20.3366 2.1844 20.3188C1.86847 20.295 1.55134 20.3453 1.25836 20.4659C0.965369 20.5865 0.704648 20.7739 0.497031 21.0132C0.289414 21.2526 0.140658 21.5371 0.0626519 21.8442C-0.0153545 22.1513 -0.0204483 22.4723 0.0477778 22.7817C0.101098 23.0268 1.21448 27.9475 4.07219 31.8729C4.20084 32.0488 4.27017 32.2611 4.27017 32.4791C4.27017 32.697 4.20084 32.9093 4.07219 33.0853C1.21448 37.0094 0.101098 41.9314 0.0477778 42.1764C-0.0204483 42.4858 -0.0153545 42.8068 0.0626519 43.1139C0.140658 43.421 0.289414 43.7055 0.497031 43.9449C0.704648 44.1842 0.965369 44.3716 1.25836 44.4922C1.55134 44.6128 1.86847 44.6631 2.1844 44.6393C2.4383 44.6215 8.34543 44.1314 13.3715 40.465C13.782 40.1637 14.1827 39.8582 14.5738 39.5484C14.7555 39.4036 14.9815 39.3254 15.2139 39.327C15.4463 39.3286 15.6712 39.4099 15.8509 39.5573C18.8026 41.9936 22.8397 45.1788 27.5306 46.9206C27.6492 46.9659 27.7465 47.054 27.8034 47.1675C27.8602 47.281 27.8725 47.4117 27.8378 47.5338L26.4845 52.2539C26.3904 52.5833 26.3811 52.9312 26.4576 53.2652C26.534 53.5991 26.6937 53.9083 26.9218 54.164C27.1498 54.4197 27.4388 54.6135 27.7619 54.7275C28.085 54.8414 28.4317 54.8718 28.7697 54.8158C30.9482 54.4477 35.356 53.1832 40.9635 48.8706C41.1237 48.7484 41.3161 48.6756 41.517 48.6611C43.1902 48.5515 44.8539 48.3267 46.4961 47.9883C46.5736 47.972 46.6463 47.9378 46.7082 47.8885C46.7702 47.8391 46.8197 47.776 46.8529 47.7041C46.8861 47.6321 46.902 47.5534 46.8993 47.4743C46.8967 47.3951 46.8755 47.3177 46.8376 47.2481L46.2651 46.1957C43.8524 42.0348 42.5831 37.3098 42.586 32.5Z" fill="#032D23"/>
</g>
<defs>
<clipPath id="clip0">
<rect width="65" height="65" fill="white"/>
</clipPath>
</defs>
</svg>
