<svg width="65" height="65" viewBox="0 0 65 65" fill="none" xmlns="http://www.w3.org/2000/svg">
<path d="M10.8333 44.6875V21.6667H8.12496V18.9583H10.8333V16.25H8.12496V13.5417H10.8333V10.8333H8.12496V8.125H24.375C25.7291 8.20625 26.9479 8.775 28.0041 9.83125C29.0604 10.8875 29.6562 12.1875 29.7916 13.5417H56.875V16.25H29.7916C29.6562 17.6854 29.0604 18.9583 28.0041 20.1229C26.9479 21.2875 25.7291 21.8021 24.375 21.6667H18.9583V40.7604C19.0937 40.7604 19.3104 40.7333 19.6083 40.625C19.9062 40.5167 20.15 40.625 20.3125 40.625C21.8291 40.625 23.5625 41.0042 25.5125 41.7625C26.6229 39.2708 28.5187 37.05 31.227 35.2083C33.9354 33.3667 36.6437 32.5 39.352 32.5C43.4958 32.5 47.0166 33.9354 49.8875 36.8062C52.7583 39.6771 54.1666 43.1979 54.1666 47.3958V48.1271C54.1666 48.4792 54.0854 48.6687 54.0854 48.75H8.50413C8.85621 47.3958 9.61454 46.0417 10.8333 44.6875ZM16.25 41.2479V21.6667H13.5416V42.5208C14.8958 41.8438 15.7354 41.4375 16.25 41.2479ZM24.375 18.9583V16.25H18.9583V18.9583H24.375ZM24.375 10.8333H18.9583V13.5417H24.375V10.8333ZM13.5416 10.8333V13.5417H16.25V10.8333H13.5416ZM13.5416 16.25V18.9583H16.25V16.25H13.5416ZM5.41663 51.4583H59.5833L54.1666 56.875H10.8333L5.41663 51.4583Z" fill="#032D23"/>
</svg>
