<svg width="41" height="46" viewBox="0 0 41 46" fill="none" xmlns="http://www.w3.org/2000/svg">
<path fill-rule="evenodd" clip-rule="evenodd" d="M20.4914 0.104126C27.8105 0.104126 34.6919 2.84648 39.8673 7.8259C40.347 8.28742 40.4666 8.99214 40.1646 9.57671L21.905 44.8909C21.6382 45.407 21.0907 45.7333 20.4915 45.7333C19.8924 45.7333 19.3449 45.407 19.078 44.8909L0.818472 9.57671C0.516195 8.99214 0.635797 8.28757 1.11548 7.8259C6.29092 2.84648 13.1721 0.104126 20.4914 0.104126ZM36.8198 9.22474C32.3453 5.29402 26.5901 3.14192 20.4914 3.14192C14.3927 3.14192 8.63743 5.29402 4.16316 9.22458L5.38472 11.5875C9.55528 8.02486 14.8674 6.07663 20.4915 6.07663C26.1154 6.07663 31.4275 8.02486 35.5982 11.5873L36.8198 9.22474ZM11.2641 22.7348C11.2201 22.7219 11.1761 22.7121 11.132 22.703L8.87012 18.3284C9.16026 17.4569 9.77918 16.7403 10.621 16.31C11.4772 15.8715 12.4599 15.7809 13.3878 16.0534C14.3153 16.326 15.0763 16.9299 15.5317 17.7537C15.9868 18.5776 16.0813 19.5229 15.7973 20.4157C15.514 21.308 14.8864 22.0405 14.0304 22.4787C13.1739 22.9167 12.1913 23.0077 11.2641 22.7348ZM12.7914 25.9123L20.4914 40.8043L24.4346 33.1784C24.2089 33.2026 23.98 33.2163 23.7476 33.2163C20.3635 33.2163 17.6104 30.5675 17.6104 27.3116C17.6104 24.0556 20.3636 21.4068 23.7476 21.4068C25.9894 21.4068 27.9535 22.57 29.0245 24.3011L34.1331 14.4209C30.4536 10.9971 25.6232 9.11443 20.4916 9.11443C15.3597 9.11443 10.5292 10.9972 6.84981 14.4211L7.20382 15.1057C7.74195 14.511 8.39313 14.009 9.13852 13.6277C10.74 12.8086 12.5766 12.6385 14.3104 13.1482C16.0444 13.658 17.4681 14.7874 18.3196 16.328C19.1705 17.8686 19.347 19.6357 18.8165 21.304C18.287 22.9719 17.1137 24.3418 15.5125 25.161C14.6558 25.5992 13.7313 25.8505 12.7914 25.9123ZM23.7476 30.1785C22.1045 30.1785 20.768 28.8924 20.768 27.3116C20.768 25.7307 22.1045 24.4446 23.7476 24.4446C25.3908 24.4446 26.7275 25.7307 26.7275 27.3116C26.7275 28.8924 25.3908 30.1785 23.7476 30.1785ZM28.306 18.1791C27.9021 18.1791 27.4981 18.0309 27.1897 17.7342L24.5848 15.2281C23.9683 14.6351 23.9683 13.6732 24.5848 13.08C25.2014 12.4872 26.2008 12.4872 26.8173 13.08L29.4224 15.5862C30.0387 16.1793 30.0387 17.1412 29.4224 17.7342C29.1139 18.0307 28.71 18.1791 28.306 18.1791Z" fill="#032D23"/>
</svg>
