<svg viewBox="0 0 32 32" xmlns="http://www.w3.org/2000/svg">

 <g>
  <title>background</title>
  <rect fill="none" id="canvas_background" y="-1" x="-1"/>
 </g>
 <g>
  <title>Layer 1</title>
  <path stroke-miterlimit="10" stroke-linejoin="round" stroke-linecap="round" stroke-width="2" stroke="#032d20" fill="none" id="svg_1" d="m18.5,8.8l-0.1,-1c-0.4,-2.2 -2,-3.8 -3.9,-3.8l0,0c-1.9,0 -3.5,1.6 -3.8,3.8l-0.1,1c-0.3,2.1 -1,4.1 -2,5.8c-1,1.6 -1.6,3.6 -1.6,5.8c0,5.3 3.4,8.6 7.5,8.6s7.5,-3.3 7.5,-8.6c0,-2.2 -0.6,-4.2 -1.5,-5.8c-1,-1.7 -1.7,-3.7 -2,-5.8z" class="st0"/>
  <path stroke-miterlimit="10" stroke-linejoin="round" stroke-linecap="round" stroke-width="2" stroke="#032d20" fill="none" id="svg_2" d="m21,6c3,7 6,9 6,14s-4.8,9 -12,9" class="st0"/>
  <path stroke-miterlimit="10" stroke-linejoin="round" stroke-linecap="round" stroke-width="2" stroke="#032d20" fill="none" id="svg_3" d="m18,20c0,2.2 -1.6,4 -3.5,4s-3.5,-1.8 -3.5,-4s1.6,-5.1 3.5,-5.1s3.5,2.9 3.5,5.1z" class="st0"/>
 </g>
</svg>