<svg width="65" height="65" viewBox="0 0 65 65" fill="none" xmlns="http://www.w3.org/2000/svg">
<path d="M32.5001 54.1667H5.41675V48.75H20.9897C20.0103 45.0083 18.0511 41.5954 15.3138 38.8628C12.5765 36.1303 9.16015 34.177 5.41675 33.2042C7.15008 32.7708 8.96466 32.5 10.8334 32.5C22.8042 32.5 32.5001 42.1958 32.5001 54.1667ZM59.5834 33.2042C57.8501 32.7708 56.0355 32.5 54.1668 32.5C46.2313 32.5 39.3251 36.7792 35.5334 43.1437C37.0974 46.6075 37.9008 50.3662 37.8897 54.1667H59.5563V48.75H43.9834C44.9725 45.0087 46.9384 41.5975 49.6795 38.8658C52.4207 36.1342 55.8387 34.1803 59.5834 33.2042ZM42.3584 29.8458C44.4564 24.2339 48.3508 19.473 53.4355 16.3042C41.8167 16.6833 32.5001 26.1896 32.5001 37.9167V37.9708C35.073 34.5312 38.4584 31.7417 42.3584 29.8458ZM30.9292 23.9687C29.8077 21.0228 28.095 18.3376 25.8965 16.0785C23.698 13.8195 21.0604 12.0344 18.1459 10.8333C22.0459 15.8708 24.3751 22.1542 24.3751 29.0062C24.3751 29.575 24.2938 30.1167 24.2667 30.6583C25.4313 31.3083 26.5147 32.0667 27.5709 32.8792C28.1503 29.7326 29.2877 26.715 30.9292 23.9687Z" fill="#032D23"/>
</svg>
