<svg viewBox=" 0 0 32 32" xmlns="http://www.w3.org/2000/svg">

 <g>
  <title>background</title>
  <rect fill="none" id="canvas_background" height="402" width="582" y="-1" x="-1"/>
 </g>
 <g>
  <title>Layer 1</title>
  <path stroke-miterlimit="10" stroke-linejoin="round" stroke-linecap="round" stroke-width="2" stroke="#032d20" fill="none" id="svg_1" d="m20.3,20.7c1.1,-1 1.8,-2.1 2.1,-3.1l3.5,-2c0.6,0.3 1.3,0.3 1.9,0c0.9,-0.5 1.3,-1.7 0.7,-2.6c-0.2,-0.3 -0.4,-0.5 -0.7,-0.7c0,-0.3 -0.1,-0.7 -0.2,-1c-0.5,-0.9 -1.7,-1.2 -2.6,-0.7c-0.6,0.4 -1,1 -1,1.7l-3.5,2c-1.5,-0.4 -3.7,-0.1 -5.7,1.1c-1.5,0.9 -2.7,2 -3.3,3.2" class="st0"/>
  <path stroke-miterlimit="10" stroke-linejoin="round" stroke-linecap="round" stroke-width="2" stroke="#032d20" fill="none" id="svg_2" d="m22.7,17.4c0.2,0.6 0.3,1.3 0.3,1.9c0,4.6 -4.5,5.7 -10,5.7s-10,-1.1 -10,-5.7s4.5,-8.3 10,-8.3c3.2,0 6,1.2 7.8,3.1" class="st0"/>
  <path stroke-miterlimit="10" stroke-linejoin="round" stroke-linecap="round" stroke-width="2" stroke="#032d20" fill="none" id="svg_3" d="m23.7,12.4c0.2,-0.5 0.1,-1 -0.2,-1.5c-0.2,-0.3 -0.4,-0.5 -0.7,-0.7c0,-0.3 -0.1,-0.7 -0.2,-1c-0.5,-0.9 -1.7,-1.2 -2.6,-0.7c-0.6,0.4 -1,1 -1,1.7l-2.3,1.3" class="st0"/>
 </g>
</svg>