<svg width="65" height="65" viewBox="0 0 65 65" fill="none" xmlns="http://www.w3.org/2000/svg">
<path d="M40.4645 28.7229C39.8734 26.9638 38.9716 26.3341 37.9285 26.3341C36.657 26.3341 35.1741 27.2675 33.7797 28.2344C32.9499 28.8112 29.7375 32.3588 27.9856 32.3588C27.7848 32.3642 27.5875 32.3059 27.4219 32.1923C25.7116 30.9816 27.8545 25.7065 27.8545 23.1766C27.8545 20.7279 27.4097 19.7925 26.7282 19.7925C24.8442 19.7925 21.1534 26.9659 20.1246 29.0357C19.8341 29.6197 19.4289 29.8502 18.9587 29.8502C17.3144 29.8502 14.8688 27.0217 13.7455 26.588C13.5779 26.52 13.3992 26.4835 13.2184 26.4804C11.3415 26.4804 11.3821 31.1492 11.4105 32.3883C12.4363 32.108 13.3981 31.9353 14.2391 31.9353C16.3587 31.9353 17.7064 33.0332 17.355 36.2558C17.2758 36.9799 16.8177 39.2874 17.5673 39.7962C17.6876 39.8745 17.8291 39.9138 17.9725 39.909C18.8368 39.909 20.2059 38.8436 20.7147 38.5186C21.3992 38.0798 22.1173 37.7589 22.7246 37.7589C23.4559 37.7589 24.0266 38.223 24.1902 39.5078C24.2877 40.2685 23.9149 43.163 24.6604 43.6251C24.7698 43.691 24.8953 43.7251 25.023 43.7237C26.3991 43.7237 28.7483 40.2848 29.8116 39.8907C30.3109 39.7058 30.8393 39.6119 31.3716 39.6134C32.7864 39.6134 34.1321 40.238 35.5083 40.7662C35.7399 40.8555 35.9288 40.8941 36.0821 40.8941C36.9139 40.8941 36.6722 39.7394 35.9602 39.001C34.9233 37.9204 33.278 38.3947 32.1242 37.6208C30.6587 36.6376 32.6991 34.6623 33.4913 34.0762C34.4368 33.3755 36.5331 32.2491 38.2058 32.2491C38.9807 32.2491 39.6642 32.4909 40.0989 33.1266C40.9206 34.3281 39.5535 35.8455 39.8988 37.1942C40.0441 37.7538 40.3955 37.9468 40.8119 37.9468C41.6985 37.9468 42.8736 37.0713 42.9548 36.988C43.4953 36.4265 44.0768 35.9061 44.6946 35.4311C41.6071 34.7476 41.3451 31.3493 40.4645 28.7229Z" fill="#032D23"/>
<path d="M15.149 26.192C15.149 26.192 17.8191 28.5472 18.9597 28.5472C19.178 28.5472 19.3415 28.4609 19.4177 28.2516C21.059 23.7575 24.5294 18.6215 26.7952 18.6215C27.7834 18.6215 28.5421 19.5995 28.8183 22.037C29.1758 25.1926 26.9933 29.9752 28.0424 31.0649C28.0653 31.088 28.0927 31.1061 28.123 31.118C28.1532 31.1299 28.1856 31.1353 28.2181 31.134C29.3972 31.134 34.0559 25.1682 38.0433 25.1682C38.3501 25.1674 38.6559 25.2053 38.9533 25.2809C42.5455 26.2021 40.9886 32.3274 43.9044 34.0773C44.3872 34.3713 44.9408 34.5289 45.5061 34.5333C46.5806 34.5333 47.5617 33.9209 47.7963 32.6544C48.3884 29.4572 38.2342 23.2598 43.7277 23.2598C44.5158 23.2598 45.6259 23.3868 47.1351 23.6691C48.034 17.5104 47.7201 15.8031 46.9158 15.8031C45.9987 15.8031 44.4427 18.0202 43.3103 18.4021C43.2775 18.4131 43.2433 18.4189 43.2087 18.4194C42.5618 18.4194 42.5841 16.0895 41.4771 16.0895C40.7621 16.0895 39.5769 17.0615 37.438 20.2566C36.335 21.905 35.5093 22.557 34.8572 22.557C32.3771 22.557 32.4472 13.0701 29.4714 13.0701C28.8701 13.0701 28.145 13.457 27.2492 14.3863C25.874 15.8143 24.5903 16.3201 23.3888 16.3201C20.4628 16.3201 18.0385 13.3148 16.0509 13.3148C15.2669 13.3148 14.5488 13.7831 13.8968 15.0912C12.547 17.8039 17.1173 17.6638 15.149 26.192ZM18.6458 27.4127C18.1116 27.1731 17.163 26.5312 16.2733 25.7999C16.4379 24.9945 16.5394 24.2714 16.5983 23.6052C16.8492 23.1847 17.1579 22.7703 17.5347 22.3864C19.0694 20.8213 21.0356 20.3267 21.9994 21.2306C20.6253 23.1248 19.4157 25.4434 18.6458 27.4127ZM41.2039 23.3766C40.7022 24.5639 41.6782 25.8172 43.1722 27.4554C43.068 27.5693 42.9467 27.6662 42.8126 27.7428C42.6703 27.8217 42.5159 27.8763 42.3556 27.9043C41.8803 26.2996 41.083 24.7589 39.2011 24.2765C38.9245 24.209 38.6423 24.1672 38.3581 24.1516C37.8483 22.4941 38.0849 20.9371 39.0508 20.3988C40.1151 19.8027 41.667 20.6538 42.7263 22.3052C42.1362 22.4179 41.4944 22.6901 41.2039 23.3766Z" fill="#032D23"/>
<path d="M48.7572 32.6767C48.5347 34.1301 50.6472 34.3901 49.6377 36.7707C49.1197 37.9884 44.7332 40.7956 45.0562 41.4101C45.5346 42.3089 46.1094 42.6583 46.6914 42.6583C47.8431 42.6583 49.0161 41.2912 49.4884 40.107C50.1069 38.5582 50.2664 34.4927 51.7736 33.7391C52.0285 33.6101 52.2804 33.5532 52.5292 33.5532C54.0171 33.5532 55.4075 35.5652 56.7481 35.8373C57.0751 34.3809 56.8415 32.8697 57.1746 31.4052C51.5156 31.3341 60.319 23.6001 55.2886 20.4445C55.0175 20.2749 54.79 20.1988 54.5909 20.1998C53.0075 20.1998 53.3762 25.0484 49.3757 25.0484C49.0568 25.0484 48.7084 25.0169 48.3296 24.9498C46.8661 24.6919 45.8555 24.572 45.1943 24.572C41.3411 24.5741 49.3818 28.6274 48.7572 32.6767Z" fill="#032D23"/>
<path d="M58.7813 25.0788C58.9256 24.2065 58.9332 23.317 58.8037 22.4423C58.4401 20.0058 56.5358 18.0233 54.5594 18.0223C53.884 18.0223 52.2671 18.3036 51.5023 20.7035C50.988 20.4886 50.4689 20.2854 49.9454 20.0941C50.3973 17.0523 50.2277 14.9673 49.4162 13.9019C49.2205 13.6353 48.9646 13.4187 48.6693 13.2698C48.3741 13.1208 48.0478 13.0437 47.7171 13.0447C46.6548 13.0447 45.4614 13.7556 43.9786 15.276L43.9248 15.1318C43.6099 14.2807 43.0838 12.8568 41.6721 12.8568C40.7073 12.8568 39.4296 13.452 36.7443 17.3662C35.9655 17.3089 35.1857 17.2672 34.4053 17.2413L34.2611 16.7172C33.4232 13.6409 32.4726 10.1552 29.7944 10.1542H29.7934C28.7016 10.1542 27.5529 10.7971 26.2803 12.1184C25.3327 13.1036 24.3953 13.582 23.4132 13.582C22.2158 13.582 20.9899 12.8954 19.8037 12.2322C18.6042 11.5619 17.3652 10.8682 16.0834 10.8682C14.5641 10.8682 13.3291 11.7995 12.3073 13.716C11.1404 15.9057 11.7894 17.352 12.417 18.7515C12.6912 19.3619 12.9787 20.0088 13.1828 20.803C6.38117 23.724 2.03125 28.147 2.03125 33.1063C2.03125 46.8508 15.6731 62.9688 32.5 62.9688C49.3279 62.9688 62.9688 46.8508 62.9688 33.1063C62.9688 30.1752 61.427 27.4371 58.7813 25.0788ZM32.5 60.8979C19.692 60.8979 8.92227 50.8473 5.34016 40.3223C10.3766 45.4909 20.6436 49.0323 32.5 49.0323C44.3564 49.0323 54.6213 45.4909 59.6578 40.3234C56.0757 50.8462 45.307 60.8979 32.5 60.8979ZM43.809 43.1387C43.5642 43.9085 42.8035 45.0785 41.86 45.9022C40.4036 47.1727 38.6283 47.4459 37.7823 46.5583C37.0713 45.8088 37.1881 44.4163 38.0047 43.1133C39.6764 40.4442 42.0733 39.8592 43.1133 40.3873C43.093 40.4605 43.0645 40.5305 43.0503 40.6088C42.9061 41.4202 43.1671 42.2713 43.809 43.1387ZM59.4171 30.0899C58.4228 30.0899 57.9445 32.8443 57.8734 34.5759C57.8104 36.1024 57.3696 36.6113 56.7389 36.6113C55.8309 36.6113 54.5289 35.5591 53.3924 34.9639C53.0288 34.773 52.7495 34.6887 52.5302 34.6887C51.8791 34.6887 51.7603 35.4494 51.5369 36.5259C51.1601 38.3429 50.7112 40.2279 49.726 41.795C49.0029 42.9457 47.8847 43.746 46.7645 43.746C46.0281 43.746 45.2908 43.4007 44.6631 42.5831C42.1952 39.3758 47.6166 38.7197 48.6972 36.5209C49.3228 35.2493 49.1227 34.8065 48.5499 34.8065C47.4226 34.8065 44.852 36.527 44.3219 37.0134C43.3855 37.8696 42.3099 39.131 40.9937 39.131C40.7712 39.131 40.5407 39.0945 40.303 39.0142C38.9066 38.543 38.7105 36.7859 39.0061 35.4809C39.2519 34.3901 39.8176 33.41 38.3591 33.3541C38.3077 33.3521 38.2562 33.3511 38.2048 33.3511C37.2653 33.3511 36.3055 33.6598 35.4534 34.0458C34.4195 34.515 32.9895 35.3539 32.6148 36.5859C32.498 36.9647 35.0056 37.3598 35.3955 37.5101C37.3496 38.2738 38.3053 41.9514 36.2609 41.9514C35.9968 41.9514 35.683 41.8895 35.3143 41.7554C34.0326 41.277 32.7438 40.6006 31.4021 40.6006C30.9613 40.6006 30.5155 40.6737 30.0635 40.8515C29.1271 41.2191 28.6152 42.2683 27.8779 42.9254C26.7871 43.9045 25.8223 44.4305 25.0646 44.4305C24.0205 44.4305 23.3705 43.4312 23.3289 41.2364C23.2923 39.453 22.9501 38.8751 22.3966 38.8751C21.4094 38.8751 19.7519 40.7184 17.9715 40.8545C17.9197 40.8576 17.8699 40.8596 17.8222 40.8596C15.4466 40.8596 16.3709 36.3431 16.5557 34.9507C16.7578 33.4323 15.8417 32.893 14.431 32.893C12.8456 32.893 10.6407 33.5735 8.69883 34.3119C8.79227 34.3952 8.88977 34.4683 8.97914 34.5597C10.7565 36.333 11.3405 38.672 10.2873 39.78C9.23203 40.886 6.93773 40.3447 5.16242 38.5694C3.38711 36.7941 2.80109 34.4551 3.85633 33.348C4.75719 32.3964 6.15773 32.7163 7.34906 33.3511C8.90602 32.828 10.4853 32.372 10.4488 31.6367C10.1715 26.0752 11.7487 25.0372 12.9665 25.0382C13.4307 25.0498 13.8847 25.1764 14.2878 25.4069C15.3867 18.329 11.2643 17.8486 13.2011 14.2137C14.1182 12.4942 15.0759 11.9072 16.0855 11.9072C18.2559 11.9072 20.6639 14.6199 23.4152 14.6199C24.5517 14.6199 25.7471 14.1558 27.0075 12.8466C28.1379 11.6726 29.0479 11.1922 29.7964 11.1922C33.1449 11.1932 33.2343 20.8102 35.1488 20.8102C35.5164 20.8102 35.9521 20.4557 36.4894 19.6107C39.2976 15.2009 40.7916 13.8938 41.6731 13.8938C42.9589 13.8938 42.9416 16.6745 43.7917 16.6745C43.9664 16.6745 44.1797 16.5557 44.4478 16.2703C45.8585 14.7682 46.9442 14.0806 47.7181 14.0806C49.5432 14.0806 49.6336 17.9004 48.1467 23.8509C48.1467 23.8509 48.4788 23.9352 48.9653 23.9352C50.0023 23.9352 51.7359 23.5544 52.4144 21.1738C52.842 19.6747 53.6738 19.0592 54.5614 19.0592C55.963 19.0592 57.5016 20.5928 57.8013 22.5987C58.3466 26.262 55.9305 28.857 56.1194 29.962C56.1519 30.158 56.2484 30.2352 56.3926 30.2352C56.9339 30.2352 58.1496 29.1332 59.2109 29.1332C60.0021 29.1332 60.709 29.7477 60.9812 31.8947C60.3596 30.5937 59.8416 30.0899 59.4171 30.0899Z" fill="#032D23"/>
</svg>
