<svg viewBox="0 0 24 24" xmlns="http://www.w3.org/2000/svg">

 <g>
  <title>background</title>
  <rect fill="none" id="canvas_background" height="402" width="582" y="-1" x="-1"/>
 </g>
 <g>
  <title>Layer 1</title>
  <path fill="#032d20" id="svg_1" d="m11.22,22.31a9.8,9.8 0 0 1 -6.44,-3.17a9.76,9.76 0 0 1 -3.16,-6.43a3.81,3.81 0 0 1 1,-2.76a9.49,9.49 0 0 1 2.18,-1.6a1,1 0 1 1 1,1.75a7.61,7.61 0 0 0 -1.68,1.26a1.83,1.83 0 0 0 -0.46,1.35a7.86,7.86 0 0 0 2.58,5a7.89,7.89 0 0 0 5,2.58a1.84,1.84 0 0 0 1.34,-0.46a7.67,7.67 0 0 0 2.22,-5.31a5.4,5.4 0 0 0 -1.51,-3.88a5.39,5.39 0 0 0 -3.9,-1.49l-0.26,0a1,1 0 0 1 -0.07,-2a7.55,7.55 0 0 1 5.62,2.09a7.41,7.41 0 0 1 2.1,5.3a9.68,9.68 0 0 1 -2.78,6.72a3.75,3.75 0 0 1 -2.78,1.05z" class="cls-1"/>
  <path fill="#032d20" id="svg_2" d="m9,14.9c-2.74,-2.73 -5.75,-4.16 -6.72,-3.18s0.45,4 3.18,6.71s5.74,4.16 6.72,3.19s-0.42,-3.99 -3.18,-6.72zm-0.71,3.53c-0.39,0.4 -1.34,0.08 -2.12,-0.7s-1.07,-1.73 -0.68,-2.12s1.34,-0.08 2.12,0.7s1.1,1.69 0.71,2.12l-0.03,0z" class="cls-1"/>
  <path fill="#032d20" id="svg_3" d="m18.92,10.83a3,3 0 0 1 -2.12,-0.83a1,1 0 1 1 1.42,-1.41a1,1 0 0 0 1.41,0a1,1 0 0 0 0,-1.42a1,1 0 0 0 -0.87,-0.28a1.45,1.45 0 0 1 -1.27,-0.41a1.48,1.48 0 0 1 -0.41,-1.27a1,1 0 0 0 -0.28,-0.87a1,1 0 0 0 -1.41,0a1,1 0 0 0 0,1.42a1,1 0 0 1 0,1.41l-2.12,2.07a1,1 0 0 1 -1.42,0a1,1 0 0 1 0,-1.41l1.54,-1.54a3,3 0 1 1 5.7,-1.46a3,3 0 0 1 -0.17,6z" class="cls-1"/>
 </g>
</svg>